<mxfile host="Electron" modified="2023-05-10T02:39:59.085Z" agent="Mozilla/5.0 (Macintosh; Intel Mac OS X 10_15_7) AppleWebKit/537.36 (KHTML, like Gecko) draw.io/21.2.1 Chrome/112.0.5615.87 Electron/24.1.2 Safari/537.36" etag="Bvd97kvxmHTgd9OTt-8_" version="21.2.1" type="device">
  <diagram name="Page-1" id="7bCmqNZJlw5AyBOXx59R">
    <mxGraphModel dx="1804" dy="593" grid="0" gridSize="10" guides="1" tooltips="1" connect="1" arrows="1" fold="1" page="1" pageScale="1" pageWidth="850" pageHeight="1100" math="0" shadow="0">
      <root>
        <mxCell id="0" />
        <mxCell id="1" parent="0" />
        <mxCell id="NBufmU7a6w7cWNhvhHDN-56" value="AWS Batch" style="rounded=1;whiteSpace=wrap;html=1;verticalAlign=top;fontStyle=5" parent="1" vertex="1">
          <mxGeometry x="-682" y="512" width="322" height="503" as="geometry" />
        </mxCell>
        <mxCell id="NBufmU7a6w7cWNhvhHDN-84" style="edgeStyle=orthogonalEdgeStyle;rounded=0;orthogonalLoop=1;jettySize=auto;html=1;entryX=0.5;entryY=0;entryDx=0;entryDy=0;entryPerimeter=0;strokeWidth=3;" parent="1" source="NBufmU7a6w7cWNhvhHDN-42" target="NBufmU7a6w7cWNhvhHDN-41" edge="1">
          <mxGeometry relative="1" as="geometry">
            <Array as="points">
              <mxPoint x="-522" y="913" />
              <mxPoint x="-415" y="913" />
            </Array>
          </mxGeometry>
        </mxCell>
        <mxCell id="NBufmU7a6w7cWNhvhHDN-42" value="" style="rounded=1;whiteSpace=wrap;html=1;dashed=1;labelPosition=center;verticalLabelPosition=top;align=center;verticalAlign=bottom;rotation=90;" parent="1" vertex="1">
          <mxGeometry x="-586.39" y="781.01" width="127.93" height="98.5" as="geometry" />
        </mxCell>
        <mxCell id="NBufmU7a6w7cWNhvhHDN-44" value="ArraySize=N" style="edgeStyle=orthogonalEdgeStyle;rounded=0;orthogonalLoop=1;jettySize=auto;html=1;entryX=0.5;entryY=0;entryDx=0;entryDy=0;entryPerimeter=0;strokeWidth=3;" parent="1" source="NBufmU7a6w7cWNhvhHDN-13" target="NBufmU7a6w7cWNhvhHDN-19" edge="1">
          <mxGeometry x="0.5985" relative="1" as="geometry">
            <mxPoint as="offset" />
          </mxGeometry>
        </mxCell>
        <mxCell id="NBufmU7a6w7cWNhvhHDN-45" value="DependsOn=&lt;br&gt;&amp;lt;render Job ID&amp;gt;" style="edgeStyle=orthogonalEdgeStyle;rounded=0;orthogonalLoop=1;jettySize=auto;html=1;strokeWidth=3;" parent="1" source="NBufmU7a6w7cWNhvhHDN-13" target="NBufmU7a6w7cWNhvhHDN-21" edge="1">
          <mxGeometry x="0.7552" relative="1" as="geometry">
            <mxPoint as="offset" />
          </mxGeometry>
        </mxCell>
        <mxCell id="NBufmU7a6w7cWNhvhHDN-13" value="Plan Job" style="verticalLabelPosition=bottom;html=1;verticalAlign=top;align=center;strokeColor=none;fillColor=#00BEF2;shape=mxgraph.azure.startup_task;pointerEvents=1;labelBackgroundColor=default;flipV=0;fontStyle=1" parent="1" vertex="1">
          <mxGeometry x="-650.06" y="607.5" width="33.25" height="35" as="geometry" />
        </mxCell>
        <mxCell id="NBufmU7a6w7cWNhvhHDN-43" value="" style="edgeStyle=orthogonalEdgeStyle;rounded=0;orthogonalLoop=1;jettySize=auto;html=1;" parent="1" source="NBufmU7a6w7cWNhvhHDN-17" target="NBufmU7a6w7cWNhvhHDN-13" edge="1">
          <mxGeometry relative="1" as="geometry" />
        </mxCell>
        <mxCell id="NBufmU7a6w7cWNhvhHDN-17" value="Plan Queue" style="outlineConnect=0;dashed=0;verticalLabelPosition=bottom;verticalAlign=top;align=center;html=1;shape=mxgraph.aws3.queue;fillColor=#D9A741;gradientColor=none;fontStyle=1;labelBackgroundColor=default;" parent="1" vertex="1">
          <mxGeometry x="-661" y="529" width="55.13" height="36" as="geometry" />
        </mxCell>
        <mxCell id="NBufmU7a6w7cWNhvhHDN-46" style="edgeStyle=orthogonalEdgeStyle;rounded=0;orthogonalLoop=1;jettySize=auto;html=1;entryX=0;entryY=0.5;entryDx=0;entryDy=0;strokeWidth=3;" parent="1" source="NBufmU7a6w7cWNhvhHDN-19" target="NBufmU7a6w7cWNhvhHDN-42" edge="1">
          <mxGeometry relative="1" as="geometry" />
        </mxCell>
        <mxCell id="NBufmU7a6w7cWNhvhHDN-47" style="edgeStyle=orthogonalEdgeStyle;rounded=0;orthogonalLoop=1;jettySize=auto;html=1;entryX=0.5;entryY=0;entryDx=0;entryDy=0;entryPerimeter=0;strokeWidth=3;" parent="1" source="NBufmU7a6w7cWNhvhHDN-21" target="NBufmU7a6w7cWNhvhHDN-41" edge="1">
          <mxGeometry relative="1" as="geometry" />
        </mxCell>
        <mxCell id="NBufmU7a6w7cWNhvhHDN-21" value="Encode Queue" style="outlineConnect=0;dashed=0;verticalLabelPosition=bottom;verticalAlign=top;align=center;html=1;shape=mxgraph.aws3.queue;fillColor=#D9A741;gradientColor=none;fontStyle=1;labelBackgroundColor=default;" parent="1" vertex="1">
          <mxGeometry x="-443" y="685" width="55.13" height="36" as="geometry" />
        </mxCell>
        <mxCell id="NBufmU7a6w7cWNhvhHDN-38" value="Render (N of N)" style="verticalLabelPosition=bottom;html=1;verticalAlign=top;align=center;strokeColor=none;fillColor=#00BEF2;shape=mxgraph.azure.startup_task;pointerEvents=1;flipV=0;" parent="1" vertex="1">
          <mxGeometry x="-535.86" y="840" width="26.1" height="27" as="geometry" />
        </mxCell>
        <mxCell id="NBufmU7a6w7cWNhvhHDN-39" value="" style="endArrow=none;dashed=1;html=1;dashPattern=1 3;strokeWidth=2;rounded=0;entryX=0.5;entryY=1;entryDx=0;entryDy=0;entryPerimeter=0;exitX=0.5;exitY=0;exitDx=0;exitDy=0;exitPerimeter=0;" parent="1" source="NBufmU7a6w7cWNhvhHDN-38" target="NBufmU7a6w7cWNhvhHDN-37" edge="1">
          <mxGeometry width="50" height="50" relative="1" as="geometry">
            <mxPoint x="-463.38" y="721" as="sourcePoint" />
            <mxPoint x="-413.38" y="671" as="targetPoint" />
          </mxGeometry>
        </mxCell>
        <mxCell id="NBufmU7a6w7cWNhvhHDN-37" value="Render (1 of N)" style="verticalLabelPosition=bottom;html=1;verticalAlign=top;align=center;strokeColor=none;fillColor=#00BEF2;shape=mxgraph.azure.startup_task;pointerEvents=1;flipV=0;labelBackgroundColor=default;" parent="1" vertex="1">
          <mxGeometry x="-535.86" y="779" width="26.1" height="27" as="geometry" />
        </mxCell>
        <mxCell id="NBufmU7a6w7cWNhvhHDN-68" value="output encoded video" style="edgeStyle=orthogonalEdgeStyle;rounded=0;orthogonalLoop=1;jettySize=auto;html=1;dashed=1;dashPattern=1 1;strokeColor=#00994D;fontColor=#00994D;" parent="1" source="NBufmU7a6w7cWNhvhHDN-41" target="NBufmU7a6w7cWNhvhHDN-57" edge="1">
          <mxGeometry x="-0.3016" relative="1" as="geometry">
            <mxPoint x="-415.4000000000001" y="1063" as="targetPoint" />
            <Array as="points">
              <mxPoint x="-415" y="1027" />
              <mxPoint x="-209" y="1027" />
              <mxPoint x="-209" y="877" />
            </Array>
            <mxPoint as="offset" />
          </mxGeometry>
        </mxCell>
        <mxCell id="NBufmU7a6w7cWNhvhHDN-19" value="Render Queue" style="outlineConnect=0;dashed=0;verticalLabelPosition=bottom;verticalAlign=top;align=center;html=1;shape=mxgraph.aws3.queue;fillColor=#D9A741;gradientColor=none;fontStyle=1;labelBackgroundColor=default;" parent="1" vertex="1">
          <mxGeometry x="-550" y="685" width="55.13" height="36" as="geometry" />
        </mxCell>
        <mxCell id="NBufmU7a6w7cWNhvhHDN-64" value="get rendered frames" style="edgeStyle=orthogonalEdgeStyle;rounded=0;orthogonalLoop=1;jettySize=auto;html=1;dashed=1;dashPattern=1 1;strokeColor=#00994D;fontColor=#00994D;entryX=1;entryY=0.5;entryDx=0;entryDy=0;entryPerimeter=0;" parent="1" source="NBufmU7a6w7cWNhvhHDN-57" target="NBufmU7a6w7cWNhvhHDN-41" edge="1">
          <mxGeometry x="-0.2613" y="8" relative="1" as="geometry">
            <mxPoint x="-334.5" y="930" as="sourcePoint" />
            <mxPoint x="-121.5" y="930" as="targetPoint" />
            <mxPoint as="offset" />
            <Array as="points">
              <mxPoint x="-298" y="953" />
            </Array>
          </mxGeometry>
        </mxCell>
        <mxCell id="NBufmU7a6w7cWNhvhHDN-66" value="output &lt;br&gt;rendered frames" style="edgeStyle=orthogonalEdgeStyle;rounded=0;orthogonalLoop=1;jettySize=auto;html=1;exitX=1;exitY=0.5;exitDx=0;exitDy=0;dashed=1;dashPattern=1 1;strokeColor=#00994D;fontColor=#00994D;exitPerimeter=0;" parent="1" source="NBufmU7a6w7cWNhvhHDN-38" target="NBufmU7a6w7cWNhvhHDN-57" edge="1">
          <mxGeometry x="0.761" y="-22" relative="1" as="geometry">
            <mxPoint x="-500" y="803" as="sourcePoint" />
            <mxPoint x="-223" y="840" as="targetPoint" />
            <mxPoint x="22" y="-22" as="offset" />
            <Array as="points">
              <mxPoint x="-444" y="854" />
              <mxPoint x="-444" y="822" />
            </Array>
          </mxGeometry>
        </mxCell>
        <mxCell id="NBufmU7a6w7cWNhvhHDN-59" value="" style="edgeStyle=orthogonalEdgeStyle;rounded=0;orthogonalLoop=1;jettySize=auto;html=1;exitX=1;exitY=0.5;exitDx=0;exitDy=0;dashed=1;dashPattern=1 1;strokeColor=#00994D;fontColor=#00994D;exitPerimeter=0;" parent="1" source="NBufmU7a6w7cWNhvhHDN-37" target="NBufmU7a6w7cWNhvhHDN-57" edge="1">
          <mxGeometry x="0.5121" relative="1" as="geometry">
            <Array as="points">
              <mxPoint x="-444" y="793" />
              <mxPoint x="-444" y="822" />
            </Array>
            <mxPoint as="offset" />
          </mxGeometry>
        </mxCell>
        <mxCell id="NBufmU7a6w7cWNhvhHDN-80" style="edgeStyle=orthogonalEdgeStyle;rounded=0;orthogonalLoop=1;jettySize=auto;html=1;entryX=1;entryY=0.5;entryDx=0;entryDy=0;entryPerimeter=0;strokeColor=none;dashed=1;dashPattern=12 12;" parent="1" source="NBufmU7a6w7cWNhvhHDN-41" edge="1">
          <mxGeometry relative="1" as="geometry">
            <Array as="points">
              <mxPoint x="-730" y="953" />
              <mxPoint x="-730" y="829" />
            </Array>
            <mxPoint x="-497.93000000000006" y="1115.5" as="targetPoint" />
          </mxGeometry>
        </mxCell>
        <mxCell id="NBufmU7a6w7cWNhvhHDN-41" value="Encode Job" style="verticalLabelPosition=bottom;html=1;verticalAlign=top;align=center;strokeColor=none;fillColor=#00BEF2;shape=mxgraph.azure.startup_task;pointerEvents=1;labelBackgroundColor=default;flipV=0;fontStyle=1" parent="1" vertex="1">
          <mxGeometry x="-432.05999999999995" y="949" width="33.25" height="35" as="geometry" />
        </mxCell>
        <mxCell id="NBufmU7a6w7cWNhvhHDN-57" value="S3 Bucket" style="sketch=0;outlineConnect=0;fontColor=#232F3E;gradientColor=none;fillColor=#3F8624;strokeColor=none;dashed=0;verticalLabelPosition=bottom;verticalAlign=top;align=center;html=1;fontSize=12;fontStyle=0;aspect=fixed;pointerEvents=1;shape=mxgraph.aws4.bucket;labelBackgroundColor=default;" parent="1" vertex="1">
          <mxGeometry x="-320" y="855" width="42.31" height="44" as="geometry" />
        </mxCell>
        <mxCell id="NBufmU7a6w7cWNhvhHDN-71" value="SubmitJob" style="edgeStyle=orthogonalEdgeStyle;rounded=0;orthogonalLoop=1;jettySize=auto;html=1;entryX=0.5;entryY=0;entryDx=0;entryDy=0;entryPerimeter=0;fontStyle=2" parent="1" source="NBufmU7a6w7cWNhvhHDN-70" target="NBufmU7a6w7cWNhvhHDN-17" edge="1">
          <mxGeometry relative="1" as="geometry" />
        </mxCell>
        <mxCell id="NBufmU7a6w7cWNhvhHDN-70" value="Upstream application" style="image;html=1;image=img/lib/clip_art/computers/Virtual_Application_128x128.png" parent="1" vertex="1">
          <mxGeometry x="-666.21" y="371" width="65.56" height="72" as="geometry" />
        </mxCell>
      </root>
    </mxGraphModel>
  </diagram>
</mxfile>
